<?xml version="1.0" encoding="UTF-8" standalone="no"?>
<svg
   xmlns:dc="http://purl.org/dc/elements/1.1/"
   xmlns:cc="http://creativecommons.org/ns#"
   xmlns:rdf="http://www.w3.org/1999/02/22-rdf-syntax-ns#"
   xmlns:svg="http://www.w3.org/2000/svg"
   xmlns="http://www.w3.org/2000/svg"
   xmlns:sodipodi="http://sodipodi.sourceforge.net/DTD/sodipodi-0.dtd"
   xmlns:inkscape="http://www.inkscape.org/namespaces/inkscape"
   width="46.771687mm"
   height="23.145067mm"
   viewBox="0 0 46.771687 23.145067"
   version="1.1"
   id="svg914"
   inkscape:version="1.0.1 (3bc2e813f5, 2020-09-07)"
   sodipodi:docname="vn.hoabinh.quan.TumTum.svg">
  <defs
     id="defs908" />
  <sodipodi:namedview
     id="base"
     pagecolor="#ffffff"
     bordercolor="#666666"
     borderopacity="1.0"
     inkscape:pageopacity="0.0"
     inkscape:pageshadow="2"
     inkscape:zoom="0.35"
     inkscape:cx="145.5303"
     inkscape:cy="478.02442"
     inkscape:document-units="mm"
     inkscape:current-layer="layer1"
     inkscape:document-rotation="0"
     showgrid="false"
     fit-margin-top="4"
     fit-margin-left="4"
     fit-margin-right="4"
     fit-margin-bottom="4"
     inkscape:window-width="1514"
     inkscape:window-height="991"
     inkscape:window-x="26"
     inkscape:window-y="23"
     inkscape:window-maximized="0" />
  <metadata
     id="metadata911">
    <rdf:RDF>
      <cc:Work
         rdf:about="">
        <dc:format>image/svg+xml</dc:format>
        <dc:type
           rdf:resource="http://purl.org/dc/dcmitype/StillImage" />
        <dc:title></dc:title>
      </cc:Work>
    </rdf:RDF>
  </metadata>
  <g
     inkscape:label="Layer 1"
     inkscape:groupmode="layer"
     id="layer1"
     transform="translate(-67.328442,-21.689371)">
    <g
       id="g572"
       transform="matrix(0.35277777,0,0,-0.35277777,-26.53317,68.154995)">
      <path
         d="m 290.299,77.4441 h 78.841 c 2.489,8.8047 10.706,23.7139 10.706,23.7139 -9.484,0.056 -11.434,-8.29 -11.434,-8.29 -0.772,7.892 4.852,13.924 4.852,13.924 -6.148,-0.723 -8.799,-12.2908 -8.799,-12.2908 -0.997,15.9188 6.888,20.2368 6.888,20.2368 -6.071,-0.01 -9.29,-10.304 -9.835,-12.753 -0.018,2.152 -1.159,7.469 -1.161,7.465 -1.57,7.216 -4.621,10.744 -4.621,10.744 0.964,-3.394 2.38,-11.398 2.449,-14.763 -3.946,9.797 -8.508,9.532 -8.232,9.252 2.177,-2.204 5.251,-9.628 5.986,-13.13 -3.741,9.321 -9.15,9.726 -9.15,9.726 3.154,-2.3 4.557,-6.868 5.132,-9.547 -2.301,3.791 -6.378,6.971 -10.009,8.225 -0.455,0.156 2.857,-3.746 4.231,-5.494 -1.966,1.201 -4.195,2.067 -6.263,2.035 2.711,-2.103 4.924,-4.912 5.655,-8.3148 0.105,-0.491 -0.948,1.7758 -3.337,3.3468 -1.724,1.134 -2.948,1.225 -4.373,1.075 -0.071,-0.14 4.735,-3.0698 4.492,-6.4601 -0.537,0.8321 -1.212,1.7699 -1.954,2.1633 -0.288,0.152 -0.485,0.1738 -0.627,0.1117 -0.152,-2.275 -0.862,-4.441 -1.993,-6.4308 -0.062,-0.109 -0.25,-0.095 -0.277,0.0359 -0.366,1.8359 -0.295,3.6801 0.191,5.4879 0.276,1.0281 0.603,2.357 1.526,3.0101 l -0.055,-0.002 c -2.486,-0.432 -3.861,-2.648 -4.488,-5.0171 -0.197,-0.2551 -0.301,-0.4238 -0.301,-0.4238 0,2.6777 1.617,5.1839 1.617,5.1839 -2.318,0.232 -3.758,-3.2031 -3.758,-3.2031 0,5.3571 3.547,9.3171 3.547,9.3171 -5.092,1.224 -7.127,-7.803 -7.127,-7.803 0,7.163 -4.179,12.521 -4.179,12.521 0.74,-2.606 0.931,-5.749 0.941,-8.199 -0.524,1.824 -1.299,3.574 -2.216,5.143 -1.641,2.356 -3.949,3.946 -6.525,5.1 0.905,-1.637 1.655,-3.379 2.276,-5.184 -1.179,1.616 -2.521,3.068 -4.208,4.023 -0.326,0.183 1.682,-5.353 2.459,-7.938 l -0.063,0.058 c -0.103,0.228 -0.199,0.438 -0.276,0.606 -1.083,2.31 -2.889,4.707 -5.265,5.806 -0.254,0.117 2.879,-6.032 0.635,-10.182 0.204,5.919 -3.341,10.867 -3.334,10.613 0.086,-2.894 1.565,-7.892 -4.558,-14.8311 -0.315,7.3151 2.618,14.1231 3.966,16.8391 -3.861,-1.779 -5.437,-5.193 -6.696,-9.037 -0.868,-2.644 -1.48,-5.3759 -1.904,-8.1251 1.508,13.1691 -2.99,21.6271 -4.932,24.5871 0.236,-1.511 0.926,-4.331 1.607,-6.372 0.469,-2.519 1.155,-7.623 1.292,-10.068 -1.231,4.381 -2.506,6.655 -3.746,8.216 -0.659,0.619 -1.398,1.189 -2.183,1.664 1.784,-2.694 2.756,-5.565 3.274,-8.537 -0.607,1.096 -1.279,2.152 -2.031,3.122 -2.086,2.043 -4.676,3.252 -7.442,4.049 0.788,-0.945 1.593,-1.87 2.33,-2.83 1.379,-1.661 2.637,-3.394 3.383,-5.634 0.977,-2.928 1.531,-5.876 2.053,-8.8569 -1.296,3.4129 -3.574,6.6039 -6.55,8.5509 -1.394,0.913 -5.353,3.665 -7.585,3.315 4.788,-3.575 7.889,-8.1659 9.748,-13.412 0.447,-0.98 0.974,-10 1.41,-16.1379"
         style="fill:#1a552b;fill-opacity:1;fill-rule:nonzero;stroke:none;stroke-width:0.1"
         id="path228" />
      <path
         d="m 290.299,77.4441 h 78.841 c 2.489,8.8047 10.706,23.7139 10.706,23.7139 -9.484,0.056 -11.434,-8.29 -11.434,-8.29 -0.772,7.892 4.852,13.924 4.852,13.924 -6.148,-0.723 -8.799,-12.2908 -8.799,-12.2908 -0.997,15.9188 6.888,20.2368 6.888,20.2368 -6.071,-0.01 -9.29,-10.304 -9.835,-12.753 -0.018,2.152 -1.159,7.469 -1.161,7.465 -1.57,7.216 -4.621,10.744 -4.621,10.744 0.964,-3.394 2.38,-11.398 2.449,-14.763 -3.946,9.797 -8.508,9.532 -8.232,9.252 2.177,-2.204 5.251,-9.628 5.986,-13.13 -3.741,9.321 -9.15,9.726 -9.15,9.726 3.154,-2.3 4.557,-6.868 5.132,-9.547 -2.301,3.791 -6.378,6.971 -10.009,8.225 -0.455,0.156 2.857,-3.746 4.231,-5.494 -1.966,1.201 -4.195,2.067 -6.263,2.035 2.711,-2.103 4.924,-4.912 5.655,-8.3148 0.105,-0.491 -0.948,1.7758 -3.337,3.3468 -1.724,1.134 -2.948,1.225 -4.373,1.075 -0.071,-0.14 4.735,-3.0698 4.492,-6.4601 -0.537,0.8321 -1.212,1.7699 -1.954,2.1633 -0.288,0.152 -0.485,0.1738 -0.627,0.1117 -0.152,-2.275 -0.862,-4.441 -1.993,-6.4308 -0.062,-0.109 -0.25,-0.095 -0.277,0.0359 -0.366,1.8359 -0.295,3.6801 0.191,5.4879 0.276,1.0281 0.603,2.357 1.526,3.0101 l -0.055,-0.002 c -2.486,-0.432 -3.861,-2.648 -4.488,-5.0171 -0.197,-0.2551 -0.301,-0.4238 -0.301,-0.4238 0,2.6777 1.617,5.1839 1.617,5.1839 -2.318,0.232 -3.758,-3.2031 -3.758,-3.2031 0,5.3571 3.547,9.3171 3.547,9.3171 -5.092,1.224 -7.127,-7.803 -7.127,-7.803 0,7.163 -4.179,12.521 -4.179,12.521 0.74,-2.606 0.931,-5.749 0.941,-8.199 -0.524,1.824 -1.299,3.574 -2.216,5.143 -1.641,2.356 -3.949,3.946 -6.525,5.1 0.905,-1.637 1.655,-3.379 2.276,-5.184 -1.179,1.616 -2.521,3.068 -4.208,4.023 -0.326,0.183 1.682,-5.353 2.459,-7.938 l -0.063,0.058 c -0.103,0.228 -0.199,0.438 -0.276,0.606 -1.083,2.31 -2.889,4.707 -5.265,5.806 -0.254,0.117 2.879,-6.032 0.635,-10.182 0.204,5.919 -3.341,10.867 -3.334,10.613 0.086,-2.894 1.565,-7.892 -4.558,-14.8311 -0.315,7.3151 2.618,14.1231 3.966,16.8391 -3.861,-1.779 -5.437,-5.193 -6.696,-9.037 -0.868,-2.644 -1.48,-5.3759 -1.904,-8.1251 1.508,13.1691 -2.99,21.6271 -4.932,24.5871 0.236,-1.511 0.926,-4.331 1.607,-6.372 0.469,-2.519 1.155,-7.623 1.292,-10.068 -1.231,4.381 -2.506,6.655 -3.746,8.216 -0.659,0.619 -1.398,1.189 -2.183,1.664 1.784,-2.694 2.756,-5.565 3.274,-8.537 -0.607,1.096 -1.279,2.152 -2.031,3.122 -2.086,2.043 -4.676,3.252 -7.442,4.049 0.788,-0.945 1.593,-1.87 2.33,-2.83 1.379,-1.661 2.637,-3.394 3.383,-5.634 0.977,-2.928 1.531,-5.876 2.053,-8.8569 -1.296,3.4129 -3.574,6.6039 -6.55,8.5509 -1.394,0.913 -5.353,3.665 -7.585,3.315 4.788,-3.575 7.889,-8.1659 9.748,-13.412 0.447,-0.98 0.974,-10 1.41,-16.1379"
         style="fill:#1a552b;fill-opacity:1;fill-rule:nonzero;stroke:none;stroke-width:0.1"
         id="path230" />
      <path
         d="m 317.348,87.934 c -0.013,0 -0.013,0.025 -0.002,0.0789 0.851,3.9609 3.426,7.232 6.582,9.6793 -0.043,8e-4 -0.086,8e-4 -0.129,8e-4 -0.749,0 -1.514,-0.0989 -2.282,-0.2782 1.121,0.6493 2.362,1.0723 3.617,1.3954 -0.472,-0.4411 -0.865,-0.9543 -1.235,-1.4993 -0.689,-1.0097 -1.339,-2.0449 -1.921,-3.1211 -0.46,-0.8488 -0.862,-1.7218 -1.224,-2.6109 -2.2,-1.618 -3.293,-3.6449 -3.406,-3.6449"
         style="fill:#13341d;fill-opacity:1;fill-rule:nonzero;stroke:none;stroke-width:0.1"
         id="path232" />
      <path
         d="m 321.09,85.641 c -0.282,3.9461 5.313,7.3559 5.231,7.5199 -0.376,0.0391 -0.739,0.0653 -1.1,0.0653 -0.349,0 -0.695,-0.0242 -1.047,-0.0813 0.266,0.1461 0.536,0.286 0.807,0.4211 0.726,0.3602 1.482,0.6481 2.242,0.9262 0.654,0.2398 1.35,0.5406 2.057,0.5406 0.011,0 0.021,-8e-4 0.032,-8e-4 -1.571,-1.309 -2.911,-2.7769 -4.021,-4.405 -0.158,0.0429 -0.321,0.0789 -0.488,0.1082 l -0.063,0.0019 c 0.143,-0.1012 0.274,-0.216 0.394,-0.343 -0.439,-0.6632 -0.841,-1.3519 -1.206,-2.0679 -0.008,0 -0.016,0 -0.024,0 -0.141,0 -0.316,-0.0512 -0.537,-0.1692 -0.865,-0.4558 -1.65,-1.5468 -2.277,-2.516"
         style="fill:#13341d;fill-opacity:1;fill-rule:nonzero;stroke:none;stroke-width:0.1"
         id="path234" />
      <path
         d="m 330.561,81.2648 c -0.01,0 -0.02,0.0012 -0.03,0.0032 0.121,0.332 0.269,0.659 0.433,0.9769 10e-4,-0.0187 0.002,-0.0379 0.003,-0.057 -0.095,-0.2629 -0.174,-0.5289 -0.234,-0.7957 -0.019,-0.084 -0.096,-0.1274 -0.172,-0.1274 m -0.22,0.3981 c -0.271,1.5172 -0.252,3.0351 -0.823,4.5 -0.295,0.7562 -0.645,1.4801 -1.047,2.175 -0.023,0.032 -0.047,0.0641 -0.07,0.0961 -0.038,0.7441 -0.128,1.4808 -0.287,2.189 1.134,-1.8289 2.15,-3.6941 2.559,-5.85 0.121,-0.632 0.203,-1.271 0.255,-1.914 -0.219,-0.3852 -0.42,-0.7852 -0.587,-1.1961"
         style="fill:#13341d;fill-opacity:1;fill-rule:nonzero;stroke:none;stroke-width:0.1"
         id="path236" />
      <path
         d="m 333.203,77.4441 h -1.237 c -0.039,3.0719 0.738,6.259 2.417,8.7758 -0.602,-0.3277 -1.162,-0.759 -1.656,-1.2609 0.954,1.2609 2.055,2.4058 3.432,3.189 -0.576,-1.0019 -1.13,-2.0109 -1.58,-3.0781 -0.516,-1.225 -0.797,-2.5437 -1.023,-3.848 -0.214,-1.2321 -0.352,-2.5071 -0.353,-3.7778"
         style="fill:#13341d;fill-opacity:1;fill-rule:nonzero;stroke:none;stroke-width:0.1"
         id="path238" />
      <path
         d="m 339.913,77.4441 h -0.618 c -0.018,0.775 -0.001,1.552 -0.06,2.3258 -0.096,1.2551 -0.383,2.4699 -0.736,3.675 -0.503,1.7301 -1.097,3.4 -1.763,5.0582 l -0.082,0.2028 c -0.113,0.2761 -0.222,0.5531 -0.338,0.8293 2.679,-2.0793 4.387,-4.85 5.473,-7.9141 -1.053,1.9078 -1.848,3.9391 -3.255,5.6379 -0.288,0.35 -0.595,0.6781 -0.91,0.9941 0.599,-1.4 0.99,-2.8691 1.301,-4.359 0.44,-2.1082 0.9,-4.28 0.988,-6.45"
         style="fill:#13341d;fill-opacity:1;fill-rule:nonzero;stroke:none;stroke-width:0.1"
         id="path240" />
      <path
         d="m 344.233,85.0262 c -0.276,0.7718 -0.592,1.5218 -0.941,2.2539 0.007,0.5301 0.025,1.059 0.053,1.5871 0.165,3.0699 0.598,6.3066 2.049,9.059 -0.206,-1.1121 -0.349,-2.2422 -0.437,-3.3793 -0.148,-0.575 -0.284,-1.1508 -0.413,-1.7219 -0.463,-2.0602 -0.529,-4.0961 -0.388,-6.1949 0.034,-0.4981 0.05,-1.043 0.077,-1.6039"
         style="fill:#13341d;fill-opacity:1;fill-rule:nonzero;stroke:none;stroke-width:0.1"
         id="path242" />
      <path
         d="m 360.13,85.0109 c -6.481,7.3461 -5.075,12.6782 -4.93,15.8301 0.184,0.344 0.391,0.674 0.628,0.98 0.037,-0.089 0.074,-0.175 0.111,-0.268 v 0 0 0 c -0.021,0.104 -0.045,0.212 -0.07,0.322 l 0.134,0.178 c -0.398,-4.401 0.345,-8.71 2.06,-12.7909 0.389,-0.9281 0.829,-1.8312 1.304,-2.7152 l -0.029,-0.191 c 0.259,-0.4188 0.526,-0.834 0.796,-1.2457 -0.001,-0.0332 -0.002,-0.0661 -0.004,-0.0993"
         style="fill:#13341d;fill-opacity:1;fill-rule:nonzero;stroke:none;stroke-width:0.1"
         id="path244" />
      <path
         d="m 372.453,86.2289 c 0.461,2.4449 1.001,4.8723 1.805,7.2859 0.806,2.4192 2.164,4.2911 3.655,6.0852 0.295,0.3852 0.6,0.764 0.911,1.141 0.214,0.131 0.437,0.261 0.666,0.379 -1.37,-1.3622 -2.175,-3.2981 -3.01,-5.002 -1.089,-2.218 -2.099,-4.4641 -2.876,-6.8121 -0.177,-0.5348 -0.342,-1.075 -0.499,-1.6168 -0.22,-0.4852 -0.438,-0.9731 -0.652,-1.4602"
         style="fill:#13341d;fill-opacity:1;fill-rule:nonzero;stroke:none;stroke-width:0.1"
         id="path246" />
      <path
         d="m 365.134,84.6621 c -0.457,2.9699 -1.118,5.9199 -2.055,8.7758 -1.23,3.748 -2.735,7.1181 -6.086,9.1521 -0.457,0.509 -0.927,1.008 -1.318,1.569 0.934,-0.187 1.773,-0.864 2.524,-1.401 1.046,-0.749 1.964,-1.653 2.788,-2.638 1.695,-2.027 2.967,-4.522 3.875,-6.9911 0.009,-0.0238 0.017,-0.048 0.026,-0.0707 -0.153,-2.5621 -0.101,-5.3641 0.246,-8.3961"
         style="fill:#13341d;fill-opacity:1;fill-rule:nonzero;stroke:none;stroke-width:0.1"
         id="path248" />
      <path
         d="m 349.035,84.9621 c -0.097,0.2777 -0.19,0.559 -0.273,0.8449 -0.552,1.9059 -0.931,3.8731 -1.18,5.8399 -0.016,0.125 -0.031,0.2511 -0.045,0.3769 0.508,2.5391 1.304,5.0922 2.466,7.3582 -0.428,-1.5949 -0.69,-3.248 -0.831,-4.9148 -0.131,-0.5184 -0.236,-1.0442 -0.313,-1.5762 -0.389,-2.6711 -0.195,-5.3019 0.176,-7.9289"
         style="fill:#13341d;fill-opacity:1;fill-rule:nonzero;stroke:none;stroke-width:0.1"
         id="path250" />
      <path
         d="m 342.317,82.891 c -0.096,0.511 -0.205,1.0199 -0.32,1.5238 -0.349,1.5204 -0.834,3.0133 -1.333,4.4883 -0.41,1.2098 -1.153,2.2481 -1.671,3.4039 0.973,-0.3601 1.75,-1.9011 2.214,-2.6621 0.245,-0.4039 0.486,-0.8148 0.715,-1.232 0.02,-0.125 0.038,-0.25 0.056,-0.3738 0.239,-1.7063 0.345,-3.427 0.339,-5.1481"
         style="fill:#13341d;fill-opacity:1;fill-rule:nonzero;stroke:none;stroke-width:0.1"
         id="path252" />
      <path
         d="m 316.636,95.3238 c 1.569,1.9953 5.305,6.4022 4.953,6.4022 -0.007,0 -0.016,-0.002 -0.026,-0.006 -2.332,-0.805 -4.821,-2.2919 -7.035,-4.2052 0.025,0.0274 0.049,0.0543 0.074,0.0801 1.217,1.3192 2.629,2.4351 4.189,3.3211 1.196,0.68 2.772,1.693 4.229,1.693 0.063,0 0.125,-0.002 0.188,-0.005 -0.627,-0.856 -1.412,-1.584 -2.055,-2.428 -0.76,-0.9951 -1.435,-2.053 -2.061,-3.135 -0.111,-0.193 -0.22,-0.3871 -0.327,-0.582 -0.728,-0.332 -1.442,-0.716 -2.129,-1.1352"
         style="fill:#13341d;fill-opacity:1;fill-rule:nonzero;stroke:none;stroke-width:0.1"
         id="path254" />
      <path
         d="m 309.91,92.1441 c 0.664,3.093 2.277,8.3489 5.884,11.0469 0.022,0.01 0.044,0.021 0.067,0.031 -2.442,-2.315 -3.699,-5.745 -4.546,-9.0572 -0.513,-0.6519 -0.985,-1.3277 -1.405,-2.0207"
         style="fill:#13341d;fill-opacity:1;fill-rule:nonzero;stroke:none;stroke-width:0.1"
         id="path256" />
      <path
         d="m 305.232,91.9371 c 0.761,3.6141 3.659,10.8169 6.073,14.1929 0.038,-0.117 0.076,-0.235 0.112,-0.354 -0.947,-1.979 -2.034,-3.887 -2.768,-5.967 -0.332,-0.941 -0.613,-1.9012 -0.863,-2.8692 -0.883,-1.357 -1.751,-3.0039 -2.554,-5.0027"
         style="fill:#13341d;fill-opacity:1;fill-rule:nonzero;stroke:none;stroke-width:0.1"
         id="path258" />
      <path
         d="m 289.981,106.674 c -0.006,0.002 -0.012,0.005 -0.017,0.007 -0.022,0.038 -0.045,0.075 -0.067,0.112 0.005,-0.003 0.011,-0.005 0.016,-0.007 0.023,-0.038 0.045,-0.075 0.068,-0.112"
         style="fill:#73ac8d;fill-opacity:1;fill-rule:nonzero;stroke:none;stroke-width:0.1"
         id="path260" />
      <path
         d="m 298.738,92.4391 c -0.547,2.464 -3.422,11.7529 -8.757,14.2349 -0.023,0.037 -0.045,0.074 -0.068,0.112 4.014,-1.696 6.238,-6.685 8.404,-10.2919 0.03,-0.0511 0.09,-0.0781 0.149,-0.0781 0.069,0 0.136,0.0379 0.149,0.1168 0.32,1.9352 0.743,3.8622 1.339,5.7302 0.016,-0.555 0.022,-1.122 0.016,-1.699 -0.327,-1.5851 -1.215,-6.082 -1.232,-8.1249 m 3.881,4.0121 c 0.061,3 1.042,9.1648 2.002,13.6618 0.412,0.505 0.869,0.975 1.381,1.404 -0.534,-1.31 -0.906,-2.697 -1.215,-4.069 -0.736,-3.261 -1.27,-6.599 -1.717,-9.9179 -0.151,-0.3469 -0.301,-0.7071 -0.451,-1.0789"
         style="fill:#13341d;fill-opacity:1;fill-rule:nonzero;stroke:none;stroke-width:0.1"
         id="path262" />
      <path
         d="m 290.712,81.8262 c 0,0 -0.223,0.9547 -0.87,2.2636 -0.185,2.6551 -0.375,5.2 -0.56,6.9981 1.039,-2.5981 1.772,-5.7731 1.43,-9.2617"
         style="fill:#13341d;fill-opacity:1;fill-rule:nonzero;stroke:none;stroke-width:0.1"
         id="path264" />
      <path
         d="m 287.284,97.332 c -10e-4,0 -0.002,8e-4 -0.003,8e-4 -0.454,0.8891 -0.952,1.7543 -1.497,2.5922 0.002,-0.002 0.004,-0.0031 0.007,-0.0051 0.544,-0.8371 1.04,-1.7008 1.493,-2.5879"
         style="fill:#73ac8d;fill-opacity:1;fill-rule:nonzero;stroke:none;stroke-width:0.1"
         id="path266" />
      <path
         d="m 295.307,83.727 c 0,0 -2.442,10.6609 -8.023,13.605 -0.453,0.8871 -0.949,1.7508 -1.493,2.5879 0.149,-0.107 0.297,-0.2129 0.444,-0.3179 1.095,-0.7782 2.129,-1.6372 3.108,-2.5559 1.972,-1.8531 3.51,-4.0289 4.831,-6.3789 0.433,-0.7711 0.836,-1.5543 1.213,-2.35 0.044,-1.4293 0.022,-2.957 -0.08,-4.5902"
         style="fill:#13341d;fill-opacity:1;fill-rule:nonzero;stroke:none;stroke-width:0.1"
         id="path268" />
      <path
         d="m 379.116,93.1852 c -3.214,-2.1032 -5.675,-5.55 -7.075,-9.2352 0.564,3.2191 1.164,6.4031 2.217,9.5648 0.806,2.4192 2.164,4.2911 3.655,6.0852 0.796,1.037 1.665,2.035 2.515,3.056 -2.986,-0.861 -5.783,-2.167 -8.037,-4.3732 -0.81,-1.0469 -1.538,-2.1879 -2.194,-3.3707 0.56,3.209 1.61,6.3089 3.536,9.2179 -0.846,-0.511 -1.646,-1.128 -2.358,-1.796 -1.338,-1.686 -2.714,-4.141 -4.044,-8.8731 0.148,2.6403 0.888,8.1531 1.395,10.8731 0.734,2.205 1.481,5.251 1.735,6.882 -2.096,-3.196 -6.955,-12.3308 -5.327,-26.5539 -0.457,2.9699 -1.118,5.9199 -2.055,8.7758 -1.362,4.1512 -3.062,7.8381 -7.232,9.7591 1.455,-2.933 4.623,-10.2849 4.283,-18.1861 -6.612,7.495 -5.015,12.8922 -4.922,16.0171 0.008,0.274 -3.821,-5.069 -3.601,-11.4608 -2.425,4.4808 0.959,11.1228 0.686,10.9968 -0.147,-0.069 -0.292,-0.143 -0.435,-0.22 -0.147,-0.244 -0.273,-0.492 -0.382,-0.6881 -0.334,-0.5977 -0.71,-1.1727 -1.021,-1.7829 -0.797,-1.5648 -1.343,-3.2429 -1.596,-4.982 -0.389,-2.6711 -0.195,-5.3019 0.176,-7.9289 -0.097,0.2777 -0.19,0.559 -0.273,0.8449 -0.552,1.9059 -0.931,3.8731 -1.18,5.8399 -0.447,3.5301 0.018,6.9851 1.33,10.2601 0.054,0.137 -0.066,0.237 -0.195,0.18 -0.946,-0.419 -1.606,-1.683 -2.024,-2.555 -1.007,-2.098 -1.639,-4.441 -2.149,-6.707 -0.463,-2.0602 -0.529,-4.0961 -0.388,-6.1949 0.034,-0.4981 0.05,-1.043 0.077,-1.6039 -0.69,1.9308 -1.631,3.7269 -2.725,5.4398 0.206,-0.8051 0.356,-1.6238 0.47,-2.4269 0.31,-2.209 0.396,-4.443 0.305,-6.6711 -0.007,-0.159 -0.221,-0.2289 -0.305,-0.0828 -1.15,2.0027 -1.954,4.175 -3.444,5.9738 -0.288,0.35 -0.595,0.6781 -0.91,0.9941 0.599,-1.4 0.99,-2.8691 1.301,-4.359 0.44,-2.1082 0.9,-4.28 0.988,-6.45 h 35.062 c 0.504,1.6641 1.095,3.2821 1.804,4.836 2.009,5.6648 5.357,10.6238 10.528,14.4847 -2.41,0.3793 -6.684,-2.5937 -8.191,-3.5796"
         style="fill:#63c338;fill-opacity:1;fill-rule:nonzero;stroke:none;stroke-width:0.1"
         id="path270" />
      <path
         d="m 334.383,86.2199 c -1.795,-0.975 -3.207,-2.8687 -3.65,-4.8277 -0.037,-0.1672 -0.305,-0.1711 -0.34,0 -0.327,1.6058 -0.27,3.218 -0.875,4.7707 -0.295,0.7562 -0.645,1.4801 -1.047,2.175 -0.88,1.2152 -2.078,2.1199 -3.668,2.3973 l -0.063,0.0019 c 1.074,-0.7601 1.454,-2.307 1.776,-3.5039 0.566,-2.1043 0.649,-4.2512 0.223,-6.3883 -0.032,-0.1527 -0.251,-0.1687 -0.323,-0.0429 -1.317,2.3171 -2.144,4.839 -2.32,7.4859 -0.166,0.073 -0.394,0.048 -0.729,-0.1309 -0.865,-0.4558 -1.65,-1.5468 -2.277,-2.516 -0.282,3.9461 5.313,7.3559 5.231,7.5199 -1.658,0.175 -3.084,0.0692 -5.091,-1.2507 -2.782,-1.8293 -4.006,-4.4672 -3.884,-3.8973 0.851,3.9609 3.426,7.232 6.582,9.6793 -2.407,0.0379 -5.003,-0.9703 -7.292,-2.3684 1.601,2.0352 5.455,6.5792 4.927,6.3962 -4.228,-1.46 -8.973,-5.161 -11.653,-9.5759 0.67,3.1188 2.304,8.4379 5.976,11.1149 0,0 -6.298,-0.472 -10.654,-11.3219 0.858,4.0758 4.435,12.7179 6.97,15.2849 0.321,0.325 -4.99,0.634 -9.583,-10.7708 0.08,3.9178 1.729,13.2358 2.851,17.1858 0,0 -3.553,-4.108 -5.381,-12.507 -10e-4,0.005 -1.331,-6.187 -1.351,-8.6909 -0.633,2.8507 -4.382,14.8349 -11.449,14.8469 0,0 9.179,-5.028 8.018,-23.559 0,0 -3.085,13.466 -10.243,14.3082 0,0 6.547,-7.0223 5.648,-16.209 0,0 -2.269,9.7136 -13.309,9.65 0,0 8.171,-4.8602 9.355,-14.0321 h 45.208 c -0.039,3.0719 0.738,6.259 2.417,8.7758"
         style="fill:#63c338;fill-opacity:1;fill-rule:nonzero;stroke:none;stroke-width:0.1"
         id="path272" />
      <path
         d="m 344.888,85.5148 c -0.288,5.375 -0.116,10.609 2.852,15.2812 l 0.045,-0.01 c -2.293,-4.779 -2.77,-10.0098 -2.793,-15.2372 l -0.104,-0.034"
         style="fill:#9ed852;fill-opacity:1;fill-rule:nonzero;stroke:none;stroke-width:0.1"
         id="path274" />
      <path
         d="m 287.667,80.2379 c -0.023,0 -0.043,0.0121 -0.055,0.041 -1.73,3.9801 -4.579,8.8633 -8.789,10.5981 l 0.017,0.0351 c 4.706,-1.0043 7.652,-6.2609 8.958,-10.4973 0.023,-0.0718 -0.065,-0.1769 -0.131,-0.1769"
         style="fill:#9ed852;fill-opacity:1;fill-rule:nonzero;stroke:none;stroke-width:0.1"
         id="path276" />
      <path
         d="m 291.474,86.5879 c -0.026,0 -0.049,0.016 -0.057,0.0543 -0.912,3.8379 -2.622,7.6828 -5.194,10.7 l 0.019,0.0238 c 3.564,-1.6172 4.906,-7.173 5.357,-10.641 0.008,-0.0641 -0.067,-0.1371 -0.125,-0.1371"
         style="fill:#9ed852;fill-opacity:1;fill-rule:nonzero;stroke:none;stroke-width:0.1"
         id="path278" />
      <path
         d="m 300.058,94.7352 c -0.029,0 -0.051,0.0187 -0.049,0.066 0.125,2.5078 0.298,5.0718 0.888,7.5208 0.491,2.039 0.98,4.378 2.196,6.12 l 0.053,-0.011 c -0.472,-0.989 -0.611,-2.165 -0.901,-3.228 -0.35,-1.285 -0.688,-2.578 -0.965,-3.881 -0.459,-2.1509 -0.769,-4.3142 -1.105,-6.4861 -0.008,-0.0531 -0.071,-0.1007 -0.117,-0.1007"
         style="fill:#9ed852;fill-opacity:1;fill-rule:nonzero;stroke:none;stroke-width:0.1"
         id="path280" />
      <path
         d="m 307.065,93.4551 c -0.064,0 -0.11,0.0429 -0.076,0.1461 0.992,3.0047 2.805,5.675 5.357,7.5748 l 0.027,-0.036 c -2.19,-2.0912 -3.931,-4.7798 -5.115,-7.5572 -0.033,-0.0769 -0.124,-0.1277 -0.193,-0.1277"
         style="fill:#9ed852;fill-opacity:1;fill-rule:nonzero;stroke:none;stroke-width:0.1"
         id="path282" />
      <path
         d="m 311.23,84.8801 c -0.049,0 -0.084,0.0277 -0.066,0.1008 1.073,4.6101 3.885,10.3671 8.922,11.6273 l 10e-4,-0.0602 c -4.37,-1.8218 -7.167,-7.357 -8.671,-11.5492 -0.022,-0.0636 -0.118,-0.1187 -0.186,-0.1187"
         style="fill:#9ed852;fill-opacity:1;fill-rule:nonzero;stroke:none;stroke-width:0.1"
         id="path284" />
      <path
         d="m 318.673,87.959 c -0.07,0 -0.12,0.0398 -0.098,0.1551 0.322,1.6929 2.2,3.1339 3.752,3.6711 l 0.009,-0.0653 c -1.488,-0.8679 -2.392,-2.2961 -3.399,-3.6301 -0.046,-0.0617 -0.173,-0.1308 -0.264,-0.1308"
         style="fill:#9ed852;fill-opacity:1;fill-rule:nonzero;stroke:none;stroke-width:0.1"
         id="path286" />
      <path
         d="m 352.544,87.3859 c -0.051,0 -0.093,0.0321 -0.106,0.1121 -0.323,1.9758 -0.33,3.8872 0.043,5.861 0.298,1.5832 0.691,3.557 1.673,4.8629 l 0.054,-0.0117 c -0.696,-1.5102 -0.936,-3.6032 -1.133,-5.2442 -0.216,-1.791 -0.311,-3.4898 -0.262,-5.298 0.003,-0.1258 -0.156,-0.2821 -0.269,-0.2821"
         style="fill:#9ed852;fill-opacity:1;fill-rule:nonzero;stroke:none;stroke-width:0.1"
         id="path288" />
      <path
         d="m 361.006,85.198 c -0.027,0 -0.048,0.0149 -0.05,0.054 -0.167,2.464 -0.485,4.9261 -0.936,7.355 -0.419,2.2559 -0.992,4.843 -2.063,6.8961 l 0.044,0.0399 c 1.502,-1.7961 2.115,-4.4809 2.453,-6.7399 0.37,-2.473 0.771,-4.9832 0.684,-7.491 -10e-4,-0.0551 -0.078,-0.1141 -0.132,-0.1141"
         style="fill:#9ed852;fill-opacity:1;fill-rule:nonzero;stroke:none;stroke-width:0.1"
         id="path290" />
      <path
         d="m 368.523,85.8648 c -0.07,0 -0.124,0.0461 -0.117,0.1641 0.264,5.0781 2.54,11.2539 7.314,13.7609 l 0.014,-0.0449 c -4.259,-2.9238 -6.085,-8.8 -6.919,-13.634 -0.022,-0.1277 -0.179,-0.2461 -0.292,-0.2461"
         style="fill:#9ed852;fill-opacity:1;fill-rule:nonzero;stroke:none;stroke-width:0.1"
         id="path292" />
    </g>
  </g>
</svg>
